# AST/ASF file generated using VICON BodyLanguage
# -----------------------------------------------
:version 1.10
:name VICON
:units
  mass 1.0
  length 0.45
  angle deg
:documentation
   .ast/.asf automatically generated from VICON data using
   VICON BodyBuilder and BodyLanguage model FoxedUp or BRILLIANT.MOD
:root
   order TX TY TZ RX RY RZ
   axis XYZ
   position 0 0 0  
   orientation 0 0 0 
:bonedata
  begin
     id 1 
     name lhipjoint
     direction 0.535335 -0.74333 0.401095 
     length 2.04549 
     axis 0 0 0  XYZ
  end
  begin
     id 2 
     name lfemur
     direction 0.34202 -0.939693 0  
     length 6.95643  
     axis 0 0 20  XYZ
    dof rx ry rz
    limits (-160.0 20.0)
           (-70.0 70.0)
           (-60.0 70.0)
  end
  begin
     id 3 
     name ltibia
     direction 0.34192 -0.939729 0   
     length 5.55969   
     axis 0 0 20   XYZ
    dof rx
    limits (-10.0 170.0)
  end
  begin
     id 4 
     name lfoot
     direction 0.216943 -0.596046 0.773088   
     length 2.27918   
     axis -90 7.62852e-016 20   XYZ
    dof rx rz
    limits (-45.0 90.0)
           (-70.0 20.0)
  end
  begin
     id 5 
     name ltoes
     direction 1.53519e-011 -4.21748e-011 1   
     length 1.05562   
     axis -90 7.62852e-016 20   XYZ
    dof rx
    limits (-90.0 20.0)
  end
  begin
     id 6 
     name rhipjoint
     direction -0.576368 -0.719173 0.38806   
     length 2.1142  
     axis 0 0 0  XYZ 
  end
  begin
     id 7 
     name rfemur
     direction -0.34202 -0.939693 0   
     length 7.07928   
     axis 0 0 -20   XYZ
    dof rx ry rz
    limits (-160.0 20.0)
           (-70.0 70.0)
           (-70.0 60.0)
  end
  begin
     id 8 
     name rtibia
     direction -0.34202 -0.939693 0   
     length 5.79974   
     axis 0 0 -20   XYZ
    dof rx
    limits (-10.0 170.0)
 end
 begin
     id 9 
     name rfoot
     direction -0.189288 -0.520065 0.832888   
     length 2.42173  
     axis -90 -7.62852e-016 -20   XYZ
    dof rx rz
    limits (-45.0 90.0)
           (-20.0 70.0)
  end
  begin
     id 10 
     name rtoes
     direction -1.53574e-011 -4.21658e-011 1   
     length 1.14469   
     axis -90 -7.62852e-016 -20   XYZ
    dof rx
    limits (-90.0 20.0)
  end
  begin
     id 11 
     name lowerback
     direction -0.00135702 0.993803 0.111144   
     length 1.91308   
     axis 0 0 0   XYZ
    dof rx ry rz
    limits (-20.0 45.0)
           (-30.0 30.0)
           (-30.0 30.0)
  end
  begin
     id 12 
     name upperback
     direction -0.0056745 0.999813 0.0184631   
     length 1.9212   
     axis 0 0 0   XYZ
    dof rx ry rz
    limits (-20.0 45.0)
           (-30.0 30.0)
           (-30.0 30.0)
  end
  begin
     id 13 
     name thorax
     direction -0.00733434 0.999426 -0.0330788   
     length 1.94196   
     axis 0 0 0   XYZ
    dof rx ry rz
    limits (-20.0 45.0)
           (-30.0 30.0)
           (-30.0 30.0)
  end
  begin
     id 14 
     name lowerneck
     direction 0.0563074 0.996944 -0.0541571   
     length 2.34257   
     axis 0 0 0   XYZ
    dof rx ry rz
    limits (-20.0 45.0)
           (-30.0 30.0)
           (-30.0 30.0)
  end
  begin
     id 15 
     name upperneck
     direction -0.0544519 0.976166 -0.210085   
     length 2.32506   
     axis 0 0 0   XYZ
    dof rx ry rz
    limits (-20.0 45.0)
           (-30.0 30.0)
           (-30.0 30.0)
  end
  begin
     id 16
     name head
     direction -0.0226035 0.997615 -0.0652205  
     length 2.3648  
     axis 0 0 0   XYZ
    dof rx ry rz
    limits (-20.0 45.0)
           (-30.0 30.0)
           (-30.0 30.0)
  end
  begin
     id 17 
     name lclavicle
     direction 0.92109 0.381297 -0.0787716  
     length 4.0487  
     axis 0 0 0   XYZ
    dof ry rz
    limits (-20.0 10.0)
           (0.0 20.0)
  end
  begin
     id 18 
     name lhumerus
     direction 1 -4.48986e-011 3.56724e-027   
     length 4.94991   
     axis 180 -30 -90   XYZ
    dof rx ry rz
    limits (-60.0 90.0)
           (-90.0 90.0)
           (-90.0 90.0)
  end
  begin
     id 19
     name lradius
     direction 1 -4.48981e-011 8.62147e-027   
     length 2.7606   
     axis 180 -30 -90   XYZ
    dof rx
    limits (-10.0 170.0)
  end
  begin
     id 20
     name lwrist
     direction 1 -4.48989e-011 1.59799e-026   
     length 1.3803   
     axis -1.17785e-014 90 90   XYZ
    dof ry
    limits (-180.0 0.0)
 end
  begin
     id 21 
     name lhand
     direction 1 -4.48896e-011 3.19599e-026   
     length 0.843936   
     axis -2.03931e-014 90 90   XYZ
    dof rx rz
    limits (-90.0 90.0)
           (-45.0 45.0)
  end
  begin
     id 22 
     name lfingers
     direction 1 -4.48887e-011 6.39197e-026   
     length 0.680403   
     axis -4.07862e-014 90 90   XYZ
    dof rx
    limits (0.0 90.0)
  end
  begin
     id 23
     name lthumb
     direction 0.707107 -6.348e-011 0.707107   
     length 0.976926   
     axis -90 45 2.85299e-015   XYZ
    dof rx rz
    limits (-45.0 45.0)
           (-45.0 45.0)
  end
  begin
     id 24 
     name rclavicle
     direction -0.951104 0.307692 -0.026953   
     length 4.21801  
     axis 0 0 0   XYZ 
    dof ry rz
    limits (-10.0 20.0)
           (-20.0 0.0)
  end
  begin
     id 25 
     name rhumerus
     direction -1 -4.4896e-011 -1.8171e-018  
     length 4.32982   
     axis 180 30 90   XYZ
    dof rx ry rz
    limits (-90.0 60.0)
           (-90.0 90.0)
           (-90.0 90.0)
  end
  begin
     id 26 
     name rradius
     direction -1 -4.48959e-011 8.25165e-027   
     length 3.20057   
     axis 180 30 90   XYZ
    dof rx
    limits (-10.0 170.0)
  end
  begin
     id 27 
     name rwrist
     direction -1 -4.48997e-011 1.59799e-026   
     length 1.60029   
     axis -1.17785e-014 -90 -90   XYZ
    dof ry
    limits (-180.0 0.0)
  end
  begin
     id 28
     name rhand
     direction -1 -4.49023e-011 3.19599e-026   
     length 0.960433   
     axis -2.03931e-014 -90 -90   XYZ
    dof rx rz
    limits (-90.0 90.0)
           (-45.0 45.0)
  end
  begin
     id 29
     name rfingers
     direction -1 -4.48802e-011 6.39197e-026   
     length 0.774326   
     axis -4.07862e-014 -90 -90   XYZ
    dof rx
    limits (0.0 90.0)
  end
  begin
     id 30
     name rthumb
     direction -0.707107 -6.34876e-011 0.707107   
     length 1.11178   
     axis -90 -45 -2.85299e-015   XYZ
    dof rx rz
    limits (-45.0 45.0)
           (-45.0 45.0)
  end
:hierarchy
  begin
    root lhipjoint rhipjoint lowerback
    lhipjoint lfemur
    lfemur ltibia
    ltibia lfoot
    lfoot ltoes
    rhipjoint rfemur
    rfemur rtibia
    rtibia rfoot
    rfoot rtoes
    lowerback upperback
    upperback thorax
    thorax lowerneck lclavicle rclavicle
    lowerneck upperneck
    upperneck head
    lclavicle lhumerus
    lhumerus lradius
    lradius lwrist
    lwrist lhand lthumb
    lhand lfingers
    rclavicle rhumerus
    rhumerus rradius
    rradius rwrist
    rwrist rhand rthumb
    rhand rfingers
end

#!OML:ASF C:\KaitlinTest1\Natural Motions\Nikki\Session 2\Nikki.ASF
:FULLY-SPECIFIED
:DEGREES
276
root -11.042 18.9152 4.57347 32.0593 83.5066 23.8836
lowerback -8.92723 -1.93756 0.759738
upperback -6.1834 -2.41651 -0.354703
thorax -1.45477 -1.15172 -0.972798
lowerneck -2.07689 -7.39232 -14.5377
upperneck 10.401 50.673 7.52975
head 169.006 57.4767 -36.5843
rclavicle -1.68967e-015 -5.56597e-015
rhumerus -93.2891 -2.95504 -32.9747
rradius 34.1188
rwrist -7.58537
rhand -46.7185 8.67451
rfingers 7.12502
rthumb -19.4366 -20.374
lclavicle -1.68967e-015 -5.56597e-015
lhumerus -84.3531 0.839111 -4.12504
lradius 35.9551
lwrist 4.44773
lhand -55.1575 5.10028
lfingers 7.12502
lthumb -27.5308 33.1073
rfemur -14.6074 -13.1039 17.6288
rtibia 24.8853
rfoot 13.9645 12.562
rtoes 5.40694e-014
lfemur -11.267 14.2077 -18.3637
ltibia 19.1274
lfoot 24.0786 -13.6363
ltoes 1.27222e-014
277
root -11.0373 18.5849 4.56265 34.0295 83.3924 26.1223
lowerback -8.76779 -1.94367 0.616083
upperback -5.97681 -2.42647 -0.48651
thorax -1.32642 -1.15843 -1.02748
lowerneck -2.94457 -7.56867 -14.1965
upperneck 9.78178 49.9821 7.1079
head 168.391 58.3382 -37.1273
rclavicle -7.70291e-015 -5.56597e-015
rhumerus -93.2908 -3.49514 -33.4905
rradius 34.0448
rwrist -7.62333
rhand -46.6829 8.38864
rfingers 7.12502
rthumb -19.4024 -20.6634
lclavicle -7.70291e-015 -5.56597e-015
lhumerus -84.9283 1.35037 -3.27518
lradius 36.0427
lwrist 4.4412
lhand -55.5089 5.20843
lfingers 7.12502
lthumb -27.8668 33.1614
rfemur -14.1345 -12.2822 17.1434
rtibia 24.9965
rfoot 14.6168 12.1298
rtoes 1.01778e-013
lfemur -11.0805 13.811 -18.6212
ltibia 19.2464
lfoot 24.1195 -13.6145
ltoes -5.08889e-014
278
root -11.0375 18.2514 4.5532 35.567 83.3743 27.8212
lowerback -8.66733 -1.91418 0.566721
upperback -5.92669 -2.38701 -0.536113
thorax -1.32836 -1.13928 -1.0456
lowerneck -3.39736 -7.77179 -14.0363
upperneck 9.3255 49.2957 6.71337
head 167.693 58.8679 -37.5662
rclavicle 2.85256e-014 3.97569e-016
rhumerus -93.4104 -3.81868 -34.0675
rradius 34.0067
rwrist -7.57248
rhand -46.5478 8.65976
rfingers 7.12502
rthumb -19.2725 -20.4053
lclavicle 2.85256e-014 3.97569e-016
lhumerus -85.6534 1.55946 -0.63048
lradius 36.5422
lwrist 5.99071
lhand -57.1475 7.05977
lfingers 7.12502
lthumb -29.4323 34.7483
rfemur -13.742 -11.0577 16.7465
rtibia 25.2952
rfoot 15.3306 11.4324
rtoes -4.45278e-014
lfemur -11.0382 13.008 -18.7889
ltibia 19.332
lfoot 24.6245 -13.457
ltoes -1.04958e-013
279
root -11.0379 17.9116 4.54342 37.5417 83.3006 29.8759
lowerback -8.5644 -1.89263 0.473022
upperback -5.88299 -2.35498 -0.617861
thorax -1.33809 -1.12305 -1.07243
lowerneck -3.94271 -7.9448 -13.8795
upperneck 8.83801 48.5989 6.33165
head 167.136 59.4177 -37.9386
rclavicle -2.98177e-015 1.55052e-014
rhumerus -93.3202 -4.21331 -34.7564
rradius 33.8937
rwrist -7.27656
rhand -46.4193 8.10928
rfingers 7.12502
rthumb -19.149 -20.968
lclavicle -2.98177e-015 1.55052e-014
lhumerus -86.3085 1.94279 0.924869
lradius 36.8294
lwrist 5.64861
lhand -57.3115 8.51199
lfingers 7.12502
lthumb -29.5889 36.1729
rfemur -14.0327 -10.0214 16.3755
rtibia 26.3161
rfoot 13.1974 11.509
rtoes -6.04305e-014
lfemur -10.9469 11.6379 -19.0274
ltibia 19.2591
lfoot 25.4469 -12.9094
ltoes -1.33583e-013
280
root -11.0507 17.5565 4.52968 38.7822 83.4012 31.0822
lowerback -8.45597 -1.89838 0.541784
upperback -5.86889 -2.36883 -0.612232
thorax -1.38592 -1.13274 -1.10258
lowerneck -4.5887 -8.07188 -13.7803
upperneck 8.41446 48.1431 6.02783
head 166.819 59.7858 -38.2111
rclavicle -1.5704e-014 -7.55382e-015
rhumerus -93.1399 -4.68037 -35.3097
rradius 33.8079
rwrist -6.62876
rhand -45.6708 10.0377
rfingers 7.12502
rthumb -18.4291 -19.1093
lclavicle -1.5704e-014 -7.55382e-015
lhumerus -86.8648 2.50014 1.07468
lradius 36.0132
lwrist 1.87274
lhand -56.3978 7.10283
lfingers 7.12502
lthumb -28.7164 34.915
rfemur -14.5268 -9.85624 16.47
rtibia 28.3091
rfoot 5.55358 9.35774
rtoes -2.8625e-014
lfemur -11.4 10.4533 -19.1283
ltibia 19.9503
lfoot 24.7094 -13.0982
ltoes -3.18055e-014
281
root -11.0792 17.1976 4.51231 40.8939 83.387 33.121
lowerback -8.29203 -1.87984 0.522266
upperback -5.82772 -2.3464 -0.674989
thorax -1.4344 -1.12352 -1.14992
lowerneck -5.35144 -8.28265 -13.6075
upperneck 7.90441 47.5188 5.64296
head 166.194 60.2366 -38.6804
rclavicle -3.13583e-014 -6.75868e-015
rhumerus -92.7842 -5.19836 -36.4363
rradius 33.7808
rwrist -6.40098
rhand -45.7104 10.0274
rfingers 7.12502
rthumb -18.4671 -19.116
lclavicle -3.13583e-014 -6.75868e-015
lhumerus -87.3969 3.00797 3.15952
lradius 36.2322
lwrist 2.26824
lhand -56.3788 7.19984
lfingers 7.12502
lthumb -28.6982 35.0151
rfemur -14.7748 -9.38257 16.4984
rtibia 31.3869
rfoot -5.08094 6.48417
rtoes 3.81667e-014
lfemur -11.9486 10.6852 -19.7432
ltibia 21.2938
lfoot 17.4841 -13.3326
ltoes 1.62208e-013
282
root -11.1304 16.7996 4.49924 41.4169 83.5735 33.2395
lowerback -8.29614 -1.87323 0.770648
upperback -5.93371 -2.3484 -0.561516
thorax -1.54834 -1.1288 -1.1702
lowerneck -6.17404 -8.36178 -13.623
upperneck 7.58944 47.5273 5.44811
head 166.325 60.0654 -38.7084
rclavicle -3.00165e-014 -4.37326e-015
rhumerus -92.4739 -5.66909 -37.6652
rradius 34.012
rwrist -6.08649
rhand -45.992 10.3756
rfingers 7.12502
rthumb -18.738 -18.7419
lclavicle -3.00165e-014 -4.37326e-015
lhumerus -88.0055 3.64944 5.41649
lradius 36.0412
lwrist 1.70208
lhand -56.7187 7.7581
lfingers 7.12502
lthumb -29.0229 35.5179
rfemur -15.16 -8.68434 16.6467
rtibia 34.8285
rfoot -15.6022 3.6213
rtoes 6.52014e-014
lfemur -12.3776 12.403 -20.4596
ltibia 23.7543
lfoot 6.3544 -15.3094
ltoes -1.27222e-014
283
root -11.188 16.4531 4.47907 42.5438 83.7909 33.713
lowerback -8.33637 -1.87691 1.05008
upperback -6.09741 -2.36222 -0.449008
thorax -1.70466 -1.14042 -1.2097
lowerneck -7.06759 -8.47936 -13.6437
upperneck 7.25197 47.5432 5.21446
head 166.381 59.7525 -38.7609
rclavicle -2.07233e-014 -1.98785e-015
rhumerus -91.6641 -6.24959 -39.1587
rradius 33.8095
rwrist -5.43719
rhand -46.3789 10.5729
rfingers 7.12502
rthumb -19.1101 -18.5082
lclavicle -2.07233e-014 -1.98785e-015
lhumerus -88.5136 4.73883 7.60618
lradius 35.871
lwrist 2.15317
lhand -57.0228 7.29064
lfingers 7.12502
lthumb -29.3133 35.0001
rfemur -16.6736 -9.13245 16.9689
rtibia 38.3187
rfoot -22.1016 2.11131
rtoes 3.65764e-014
lfemur -12.9943 10.0583 -20.1312
ltibia 26.979
lfoot -1.74704 -12.2415
ltoes 4.45278e-014
284
root -11.2289 16.2014 4.46049 44.3505 83.453 34.6706
lowerback -8.2755 -1.7914 1.01286
upperback -6.34594 -2.23478 -0.520524
thorax -1.99527 -1.07508 -1.24802
lowerneck -8.13248 -8.52028 -13.5344
upperneck 7.04652 48.0892 5.23892
head 167.211 58.935 -38.4458
rclavicle 5.96354e-016 -1.98785e-015
rhumerus -90.6226 -7.0435 -40.8544
rradius 33.5238
rwrist -4.86384
rhand -46.6839 11.3084
rfingers 7.12502
rthumb -19.4034 -17.7435
lclavicle 5.96354e-016 -1.98785e-015
lhumerus -88.7926 6.22061 9.50851
lradius 35.7123
lwrist 2.75676
lhand -57.0022 7.88393
lfingers 7.12502
lthumb -29.2936 35.5968
rfemur -19.3404 -9.54521 17.0597
rtibia 41.2197
rfoot -26.0373 0.961347
rtoes -1.51076e-014
lfemur -14.9641 9.67083 -20.7035
ltibia 30.9227
lfoot -7.63425 -10.0934
ltoes -5.40694e-014
